# xmcd
#
# Track frame offsets:
#	150
#	18982
#	38195
#	56030
#	73302
#	94990
#	113317
#	132182
#	150055
#	166805
#	181495
#	193510
#	210557
#	227742
#	244265
#
# Disc length: 3497 seconds
#
# Revision: 1
# Processed by: cddbd v1.5.2PL0 Copyright (c) Steve Scherf et al.
# Submitted via: audiograbber 1.83.01
#
DISCID=c10da70f
DTITLE=Top Country Hist Of The 90's Vol IX - MM6041
DYEAR=1900
DGENRE=
TTITLE0=Standing Outside The Fire - Garth Brooks
TTITLE1=Piece Of My Heart - Faith Hill
TTITLE2=Tryin' To Get Over You - Vince Gill
TTITLE3=No Doubt About It - Neal Mccoy
TTITLE4=Take It To The Limit - Suzy Bogguss
TTITLE5=I'm Holding My Own - Leroy Parnell
TTITLE6=My Love - Little Texas
TTITLE7=Better Your Heart Than Mine - Trisha Yearwood
TTITLE8=Goodbye Says It All - Blackhawk
TTITLE9=Words By Heart - Billy Ray Cyrus
TTITLE10=Silver Threads Golden Needles - T. Wynette - D. Parton -  L. Lynn
TTITLE11=(Who Says) You Can't Have It All - Alan Jackson
TTITLE12=Let's Make A Baby King - Wynonna
TTITLE13=I Can't Reach Her Anymore - Sammy Kershaw
TTITLE14=We've Tried Everything - Pam Tillis
EXTD=
EXTT0=
EXTT1=
EXTT2=
EXTT3=
EXTT4=
EXTT5=
EXTT6=
EXTT7=
EXTT8=
EXTT9=
EXTT10=
EXTT11=
EXTT12=
EXTT13=
EXTT14=
PLAYORDER=
